<?xml version="1.0" encoding="utf-8"?>
<!-- Generator: Adobe Illustrator 23.0.5, SVG Export Plug-In . SVG Version: 6.00 Build 0)  -->
<svg version="1.1" id="Слой_1" focusable="false"
	 xmlns="http://www.w3.org/2000/svg" xmlns:xlink="http://www.w3.org/1999/xlink" x="0px" y="0px" viewBox="0 0 512 512"
	 style="enable-background:new 0 0 512 512;" xml:space="preserve">
<style type="text/css">
	.st0{fill:#FFFFFF;}
</style>
<path class="st0" d="M458.6,255.9l46-45c13.7-13,7.3-36-10.7-40.3l-62.6-16l17.7-62c5-17.8-11.8-34.7-29.7-29.7l-62,17.7l-16-62.7
	C337.1,0.2,313.8-6.3,301,7.2l-45,46.3L211,7.2C198.4-6.1,175,0,170.7,17.9l-16,62.7l-62-17.7c-17.8-5-34.7,11.8-29.7,29.7l17.7,62
	l-62.7,16c-18,4.3-24.4,27.4-10.7,40.3l46,45l-46,45c-13.7,13-7.3,36,10.7,40.3l62.7,16l-17.7,62c-5,17.8,11.8,34.7,29.7,29.7
	l62-17.7l16,62.7c4.4,18.6,27.7,24,40.3,10.7l45-46l45,46c12.5,13.5,36,7.5,40.3-10.7l16-62.7l62,17.7c17.8,5,34.7-11.8,29.7-29.7
	l-17.7-62l62.6-16c18-4.3,24.4-27.4,10.7-40.3L458.6,255.9L458.6,255.9z"/>
</svg>
