<?xml version="1.0" encoding="utf-8"?>
<!-- Generator: Adobe Illustrator 23.0.5, SVG Export Plug-In . SVG Version: 6.00 Build 0)  -->
<svg version="1.1" id="Слой_1" focusable="false"
	 xmlns="http://www.w3.org/2000/svg" xmlns:xlink="http://www.w3.org/1999/xlink" x="0px" y="0px" viewBox="0 0 512 512"
	 style="enable-background:new 0 0 512 512;" xml:space="preserve">
<style type="text/css">
	.st0{fill:#696969;}
</style>
<path class="st0" d="M256,8C119,8,8,119,8,256s111,248,248,248s248-111,248-248S393,8,256,8z M256,456c-110.5,0-200-89.5-200-200
	S145.5,56,256,56s200,89.5,200,200S366.5,456,256,456z M317.8,351.6l-84.9-61.7c-3.1-2.3-4.9-5.9-4.9-9.7V116c0-6.6,5.4-12,12-12h32
	c6.6,0,12,5.4,12,12v141.7l66.8,48.6c5.4,3.9,6.5,11.4,2.6,16.8L334.6,349C330.7,354.3,323.2,355.5,317.8,351.6L317.8,351.6z"/>
</svg>
