<?xml version="1.0" encoding="utf-8"?>
<!-- Generator: Adobe Illustrator 23.0.5, SVG Export Plug-In . SVG Version: 6.00 Build 0)  -->
<svg version="1.1" id="Слой_1" focusable="false"
	 xmlns="http://www.w3.org/2000/svg" xmlns:xlink="http://www.w3.org/1999/xlink" x="0px" y="0px" viewBox="0 0 576 512"
	 style="enable-background:new 0 0 576 512;" xml:space="preserve">
<style type="text/css">
	.st0{fill:#F4F4F4;}
</style>
<path class="st0" d="M572.5,241.4C518.3,135.6,410.9,64,288,64S57.7,135.6,3.5,241.4c-4.6,9.2-4.6,20,0,29.2
	C57.7,376.4,165.1,448,288,448s230.3-71.6,284.5-177.4C577.2,261.4,577.2,250.6,572.5,241.4z M288,400c-79.5,0-144-64.5-144-144
	s64.5-144,144-144s144,64.5,144,144s-64.4,144-143.9,144H288z M288,160c-8.6,0.1-17.1,1.4-25.3,3.8c15.7,21.3,11.1,51.2-10.2,66.9
	c-16.9,12.4-39.9,12.4-56.7,0c-13.9,51.1,16.3,103.7,67.3,117.5c51.1,13.9,103.7-16.3,117.5-67.3c13.9-51.1-16.3-103.7-67.3-117.5
	C305.1,161.1,296.5,160,288,160z"/>
</svg>
