<?xml version="1.0" encoding="utf-8"?>
<!-- Generator: Adobe Illustrator 23.0.5, SVG Export Plug-In . SVG Version: 6.00 Build 0)  -->
<svg version="1.1" id="Слой_1" focusable="false"
	 xmlns="http://www.w3.org/2000/svg" xmlns:xlink="http://www.w3.org/1999/xlink" x="0px" y="0px" viewBox="0 0 448 512"
	 style="enable-background:new 0 0 448 512;" xml:space="preserve">
<style type="text/css">
	.st0{fill:#FFFFFF;}
</style>
<path class="st0" d="M319.4,320.6L224,416l-95.4-95.4C57.1,323.7,0,382.2,0,454.4v9.6c0,26.5,21.5,48,48,48h352
	c26.5,0,48-21.5,48-48v-9.6C448,382.2,390.9,323.7,319.4,320.6L319.4,320.6z M13.6,79.8l6.4,1.5v58.4c-7,4.2-12,11.5-12,20.3
	c0,8.4,4.6,15.4,11.1,19.7L3.5,242c-1.7,6.9,2.1,14,7.6,14h41.8c5.5,0,9.3-7.1,7.6-14l-15.6-62.3C51.4,175.4,56,168.4,56,160
	c0-8.8-5-16.1-12-20.3V87.1l66,15.9c-8.6,17.2-14,36.4-14,57c0,70.7,57.3,128,128,128s128-57.3,128-128c0-20.6-5.3-39.8-14-57
	l96.3-23.2c18.2-4.4,18.2-27.1,0-31.5l-190.4-46c-13-3.1-26.7-3.1-39.7,0L13.6,48.2C-4.5,52.6-4.5,75.4,13.6,79.8z"/>
</svg>
