<?xml version="1.0" encoding="utf-8"?>
<!-- Generator: Adobe Illustrator 23.0.5, SVG Export Plug-In . SVG Version: 6.00 Build 0)  -->
<svg version="1.1" id="Слой_1" focusable="false"
	 xmlns="http://www.w3.org/2000/svg" xmlns:xlink="http://www.w3.org/1999/xlink" x="0px" y="0px" viewBox="0 0 640 512"
	 style="enable-background:new 0 0 640 512;" xml:space="preserve">
<style type="text/css">
	.st0{fill:#FFFFFF;}
</style>
<path class="st0" d="M622.3,153.2L343.4,67.5c-15.2-4.7-31.6-4.7-46.8,0L17.7,153.2c-23.5,7.2-23.5,38.4,0,45.6l48.6,14.9
	c-10.7,13.2-17.2,29.3-17.9,46.9C38.8,266.1,32,276.1,32,288c0,10.8,5.7,19.9,13.9,25.6L20.3,428.5c-2.2,10,5.4,19.5,15.6,19.5h56.1
	c10.2,0,17.8-9.5,15.6-19.5L82.1,313.6C90.3,307.9,96,298.8,96,288c0-11.6-6.5-21.3-15.7-26.9c0.8-15,8.4-28.3,20.7-36.7l195.6,60.1
	c9.1,2.8,26.4,6.3,46.8,0l279-85.7C645.9,191.6,645.9,160.4,622.3,153.2L622.3,153.2z M352.8,315.1c-28.5,8.8-52.8,3.9-65.6,0
	l-145-44.5L128,384c0,35.4,86,64,192,64s192-28.6,192-64l-14.2-113.5L352.8,315.1z"/>
</svg>
