<?xml version="1.0" encoding="utf-8"?>
<!-- Generator: Adobe Illustrator 23.0.5, SVG Export Plug-In . SVG Version: 6.00 Build 0)  -->
<svg version="1.1" id="Слой_1" focusable="false"
	 xmlns="http://www.w3.org/2000/svg" xmlns:xlink="http://www.w3.org/1999/xlink" x="0px" y="0px" viewBox="0 0 640 512"
	 style="enable-background:new 0 0 640 512;" xml:space="preserve">
<style type="text/css">
	.st0{fill:#FFFFFF;}
</style>
<path class="st0" d="M208,352c-2.4,0-4.8,0.4-7.1,1.1c-13,4.2-26.6,6.9-40.9,6.9s-28-2.7-40.9-6.9c-2.3-0.7-4.7-1.1-7.1-1.1
	C49.9,352-0.3,402.5,0,464.6C0.1,490.9,21.7,512,48,512h224c26.3,0,47.9-21.1,48-47.4C320.3,402.5,270.1,352,208,352z M160,320
	c53,0,96-43,96-96s-43-96-96-96s-96,43-96,96S107,320,160,320z M592,0H208c-26.5,0-48,22.3-48,49.6V96c23.4,0,45.1,6.8,64,17.8V64
	h352v288h-64v-64H384v64h-76.2c19.1,16.7,33.1,38.7,39.7,64H592c26.5,0,48-22.3,48-49.6V49.6C640,22.3,618.5,0,592,0z"/>
</svg>
